<?xml version="1.0" standalone="no"?>
<!DOCTYPE svg PUBLIC "-//W3C//DTD SVG 1.1//EN" "http://www.w3.org/Graphics/SVG/1.1/DTD/svg11.dtd" >
<svg xmlns="http://www.w3.org/2000/svg">
<metadata>
Created by FontForge 20120731 at Tue Aug 16 14:07:22 2016
 By admin
</metadata>
<defs>
<font id="iconfont" horiz-adv-x="1024" >
  <font-face 
    font-family="iconfont"
    font-weight="500"
    font-stretch="normal"
    units-per-em="1024"
    panose-1="2 0 6 3 0 0 0 0 0 0"
    ascent="896"
    descent="-128"
    x-height="792"
    bbox="0 -224 1024 800"
    underline-thickness="50"
    underline-position="-100"
    unicode-range="U+0078-E640"
  />
<missing-glyph horiz-adv-x="374" 
d="M34 0v682h272v-682h-272zM68 34h204v614h-204v-614z" />
    <glyph glyph-name=".notdef" horiz-adv-x="374" 
d="M34 0v682h272v-682h-272zM68 34h204v614h-204v-614z" />
    <glyph glyph-name=".null" horiz-adv-x="0" 
 />
    <glyph glyph-name="nonmarkingreturn" horiz-adv-x="341" 
 />
    <glyph glyph-name="x" unicode="x" horiz-adv-x="1001" 
d="M281 543q-27 -1 -53 -1h-83q-18 0 -36.5 -6t-32.5 -18.5t-23 -32t-9 -45.5v-76h912v41q0 16 -0.5 30t-0.5 18q0 13 -5 29t-17 29.5t-31.5 22.5t-49.5 9h-133v-97h-438v97zM955 310v-52q0 -23 0.5 -52t0.5 -58t-10.5 -47.5t-26 -30t-33 -16t-31.5 -4.5q-14 -1 -29.5 -0.5
t-29.5 0.5h-32l-45 128h-439l-44 -128h-29h-34q-20 0 -45 1q-25 0 -41 9.5t-25.5 23t-13.5 29.5t-4 30v167h911zM163 247q-12 0 -21 -8.5t-9 -21.5t9 -21.5t21 -8.5q13 0 22 8.5t9 21.5t-9 21.5t-22 8.5zM316 123q-8 -26 -14 -48q-5 -19 -10.5 -37t-7.5 -25t-3 -15t1 -14.5
t9.5 -10.5t21.5 -4h37h67h81h80h64h36q23 0 34 12t2 38q-5 13 -9.5 30.5t-9.5 34.5q-5 19 -11 39h-368zM336 498v228q0 11 2.5 23t10 21.5t20.5 15.5t34 6h188q31 0 51.5 -14.5t20.5 -52.5v-227h-327z" />
    <glyph glyph-name="uniE600" unicode="&#xe600;" 
d="M64 288q0 -91 35.5 -174t95.5 -143t143 -95.5t174 -35.5t174 35.5t143 95.5t95.5 143t35.5 174t-35.5 174t-95.5 143t-143 95.5t-174 35.5t-174 -35.5t-143 -95.5t-95.5 -143t-35.5 -174z" />
    <glyph glyph-name="uniE601" unicode="&#xe601;" 
d="M827 138l-110 97l50 57l110 -97zM600 -120l-110 97l200 228l110 -97zM468 -47l111 -97l-117 -21zM331 550h313v-91h-313v91zM331 375h313v-91h-313v91zM331 200h167v-91h-167v91zM402 -80h-111q-21 0 -36 14.5t-15 35.5v635q0 21 15 36t36 15h395q21 0 36 -15t15 -36
v-198h92v251q0 36 -26 62t-63 26h-503q-37 0 -63 -26t-26 -62v-740q0 -36 26 -62t63 -26h165v90z" />
    <glyph glyph-name="uniE602" unicode="&#xe602;" 
d="M672 -156l-156 413l-166 -145l-11 -121l-65 -57l-56 145l-129 79l69 60l109 -10l168 146l-371 225l87 75l463 -146l243 211q19 17 44.5 15t42 -22t14 -46t-21.5 -43l-245 -213l66 -492z" />
    <glyph glyph-name="uniE603" unicode="&#xe603;" 
d="M755.5 348q-83.5 0 -142 -59t-58.5 -142q0 -44 19 -84q-63 82 -38 214q68 27 110.5 89t42.5 138q0 102 -72 173.5t-173.5 71.5t-173.5 -71.5t-72 -173.5q0 -62 29 -115.5t78 -87.5q4 -18 4.5 -36t-6.5 -41t-22 -43t-45 -40.5t-72 -35.5q-66 -23 -100 -69v-90v-89h625
q1 1 2 3.5t1 12.5t-3.5 22.5t-15.5 35.5t-31 51q51 -36 114 -36q83 0 141.5 59t58.5 142t-58.5 142t-142 59zM867 125h-223v44h223v-44z" />
    <glyph glyph-name="uniE604" unicode="&#xe604;" 
d="M831 -161h-639q-54 0 -91.5 34t-37.5 82v665q0 48 37.5 82t91.5 34h639q53 0 91 -34t38 -82v-665q0 -48 -38 -82t-91 -34zM831 564q0 24 -19 41t-46 17h-510q-26 0 -45 -17t-19 -41v-551q0 -24 19 -41t45 -17h510q27 0 46 17t19 41v551zM573 395h84v-280h-84v280z
M425 437h84v-322h-84v322zM276 275h84v-160h-84v160z" />
    <glyph glyph-name="uniE605" unicode="&#xe605;" 
d="M62 295l375 -440q7 19 22 53t65.5 135t107 197t146 221.5t183.5 226.5l-26 59q-17 -14 -46.5 -38t-110.5 -94.5t-149.5 -136.5t-142.5 -149.5t-111 -146.5l-221 202z" />
    <glyph glyph-name="uniE606" unicode="&#xe606;" 
d="M510 747q-91 0 -173.5 -35.5t-142.5 -95t-95.5 -142.5t-35.5 -174t35.5 -173.5t95.5 -142.5t142.5 -95.5t173.5 -35.5t174 35.5t142.5 95.5t95 142.5t35.5 173.5t-35.5 174t-95 142.5t-142.5 95t-174 35.5zM510 -35q-91 0 -168 45t-122 122t-45 168t45 168.5t122 122.5
t168 45t168.5 -45t122 -122.5t44.5 -168.5t-44.5 -168t-122 -122t-168.5 -45zM566 460h-112v-168v-111h112h112v111h-112v168z" />
    <glyph glyph-name="uniE607" unicode="&#xe607;" 
d="M62 613v-268h402v402h-268q-56 0 -95 -39t-39 -95zM821 747h-268v-402h402v268q0 56 -39 95t-95 39zM62 -12q0 -56 39 -95t95 -39h268v402h-402v-268zM553 -146h268q56 0 95 39t39 95v268h-402v-402z" />
    <glyph glyph-name="uniE608" unicode="&#xe608;" 
d="M217 532l295 -336l294 336l152 12l-446 -510l-447 510z" />
    <glyph glyph-name="uniE609" unicode="&#xe609;" 
d="M756 -4l-340 294l340 294l12 152l-515 -446l515 -446z" />
    <glyph glyph-name="uniE60A" unicode="&#xe60a;" 
d="M266 584l338 -294l-338 -295l-12 -152l513 447l-513 446z" />
    <glyph glyph-name="uniE60B" unicode="&#xe60b;" 
d="M805 46l-294 336l-294 -336l-153 -12l447 510l446 -510z" />
    <glyph glyph-name="uniE60C" unicode="&#xe60c;" 
d="M414 -39h-4v-49q0 -27 33.5 -47.5t69.5 -20.5h1v0h1q35 0 68.5 20.5t33.5 47.5v49h-203zM960 -7v1q0 19 -1 36h-1v-1v0v1l1 1q-9 134 -67.5 231t-154.5 150v9v105q0 79 -50 136q-62 73 -172 73h-1h-2q-110 0 -171 -73q-51 -57 -51 -136v-105v-9q-95 -53 -153.5 -150
t-68.5 -231q1 0 1 -1v-1v0v1q-1 -17 -1 -36v-1v0h16h876z" />
    <glyph glyph-name="uniE60D" unicode="&#xe60d;" 
d="M66 673v-832h893v832h-893zM878 -83h-731v529h731v-529zM878 522h-325v75h325v-75zM390 370h82v-75h-82v75zM553 370h81v-75h-81v75zM715 370h82v-75h-82v75zM228 219h81v-75h-81v75zM390 219h82v-75h-82v75zM553 219h81v-75h-81v75zM715 219h82v-75h-82v75zM228 68h81
v-76h-81v76zM390 68h82v-76h-82v76zM553 68h81v-76h-81v76zM715 68h82v-76h-82v76z" />
    <glyph glyph-name="uniE60E" unicode="&#xe60e;" 
d="M546 -93h138v-64h-138v64zM338 -93h138v-64h-138v64zM822 674v-128h-207v128h-208v-128h-207v128h-138v-831h207v64h-138v575h760v-575h-138v-64h207v831h-138zM269 738h69v-64h-69v64zM269 674h69v-64h-69v64zM684 738h69v-64h-69v64zM684 674h69v-64h-69v64zM269 -93
h69v-64h-69v64zM269 99h69v-128h-69v128zM269 482h69v-128h-69v128zM269 291h69v-128h-69v128zM476 -93h70v-64h-70v64zM476 482h70v-128h-70v128zM476 291h70v-128h-70v128zM476 99h70v-128h-70v128zM684 -93h69v-64h-69v64zM684 99h69v-128h-69v128zM684 291h69v-128h-69
v128zM684 482h69v-128h-69v128zM131 354h138v-63h-138v63zM753 354h138v-63h-138v63zM546 354h138v-63h-138v63zM338 354h138v-63h-138v63zM269 354h69v-63h-69v63zM476 354h70v-63h-70v63zM684 354h69v-63h-69v63zM546 163h138v-64h-138v64zM338 163h138v-64h-138v64z
M131 163h138v-64h-138v64zM753 163h138v-64h-138v64zM269 163h69v-64h-69v64zM476 163h70v-64h-70v64zM684 163h69v-64h-69v64zM338 -29h138v-64h-138v64zM131 -29h138v-64h-138v64zM753 -29h138v-64h-138v64zM546 -29h138v-64h-138v64zM269 -29h69v-64h-69v64zM476 -29h70
v-64h-70v64zM684 -29h69v-64h-69v64z" />
    <glyph glyph-name="uniE60F" unicode="&#xe60f;" 
d="M831 675v-128h-191v128h-256v-128h-191v128h-128v-835h894v835h-128zM831 -31h-638v449h638v-449zM257 739h63v-64h-63v64zM257 675h63v-64h-63v64zM704 739h63v-64h-63v64zM704 675h63v-64h-63v64zM448 97h-128v64h-63v-128h191v64zM384 290v-64h64v128h-191v-128h63v64
h64zM320 226h64v-65h-64v65zM704 161h-64v-64h-64v64h-64v-128h192v128zM576 226h64v-65h-64v65zM640 290v-64h64v128h-192v-128h64v64h64z" />
    <glyph glyph-name="uniE610" unicode="&#xe610;" 
d="M460 344q4 0 12.5 0.5t11.5 0.5q94 55 206 55q17 0 53 -4q53 23 82.5 53t29.5 64v56q0 46 -53 84.5t-144 61t-198.5 22.5t-198.5 -22.5t-143.5 -61t-52.5 -84.5v-56q0 -46 52.5 -85t143.5 -61.5t199 -22.5zM476 169h486v-156h-486v156zM378 -63q-6 9 -11 18
q-134 11 -218 50t-84 97v-95q0 -37 35 -70q47 -44 144 -71.5t216 -27.5q4 0 11.5 0.5t10.5 0.5q-64 39 -104 98zM346 183q22 59 68 106q-99 4 -177.5 23t-125 52t-46.5 75v-95q0 -56 79 -100.5t202 -60.5zM340 15q-12 42 -12 76q0 5 4 36q-120 14 -193.5 51.5t-73.5 91.5
v-95q0 -55 77 -99t198 -61z" />
    <glyph glyph-name="uniE611" unicode="&#xe611;" 
d="M365 184q23 59 73 106q-106 4 -189.5 22.5t-133.5 51.5t-50 75v-94q0 -57 84 -101t216 -60zM486 345q5 0 14 0.5t12 0.5q100 55 220 55q18 0 56 -5q56 23 87.5 53.5t31.5 63.5v56q0 46 -56.5 84.5t-153.5 61t-211 22.5t-211 -22.5t-153.5 -61t-56.5 -84.5v-56
q0 -46 56.5 -84.5t153.5 -61t211 -22.5zM767 120v156h-132v-156h-193v-106h193v-155h132v155h193v106h-193zM387 -44q-143 11 -232.5 50t-89.5 97v-95q0 -46 56.5 -84.5t153.5 -61t211 -22.5q4 0 12 0.5t11 0.5q-78 44 -122 115zM359 17q-13 41 -13 75q0 5 4 36
q-128 14 -206.5 51.5t-78.5 91.5v-95q0 -55 82 -99t212 -60z" />
    <glyph glyph-name="uniE612" unicode="&#xe612;" 
d="M910 271q0 -27 -19.5 -46.5t-46.5 -19.5h-664q-27 0 -46.5 19.5t-19.5 46.5v33q0 27 19.5 46.5t46.5 19.5h664q27 0 46.5 -19.5t19.5 -46.5v-33zM529 686q27 0 46.5 -19.5t19.5 -46.5v-664q0 -28 -19.5 -47t-46.5 -19h-33q-28 0 -47.5 19t-19.5 47v664q0 27 19.5 46.5
t47.5 19.5h33z" />
    <glyph glyph-name="uniE613" unicode="&#xe613;" 
d="M970 -106q-1 -3 -3 -6.5t-7.5 -4t-11.5 10.5q-2 5 -5.5 14.5t-16 37.5t-27.5 54.5t-40 61t-52 62t-65 53t-78.5 39t-92.5 13.5t-107 -17v-132q-1 -3 -1.5 -8t-5 -15.5t-12 -16t-22 -3.5t-33.5 16l-337 291l-7 5q-5 3 -13.5 12.5t-10.5 19.5t6 25.5t29 30.5l341 293
q2 1 5.5 3.5t13 5.5t17.5 2t16 -9.5t12 -24.5v-143h1q110 -6 225 -55q240 -103 289 -334q26 -124 -7 -281z" />
    <glyph glyph-name="uniE614" unicode="&#xe614;" 
d="M841 600q30 0 49.5 -10t31 -25t16 -32.5t4.5 -32.5q0 -7 -0.5 -11t-0.5 -7v-6h-66v-525q0 -20 -8 -38.5t-23 -32.5t-36.5 -22.5t-49.5 -8.5h-446q-26 0 -49 8t-39.5 22.5t-26 35t-9.5 46.5v515h-62q-1 1 -1 5q-1 5 -1 31q0 13 6 29t18 29.5t31 22.5t45 9h89v61
q0 26 18 44.5t44 18.5h313q35 0 48.5 -18.5t13.5 -44.5v-62q21 -1 45 -1h46zM375 600h313v63h-313v-63zM344 -33q32 0 32 41v464h-62v-464q0 -21 6.5 -31t23.5 -10zM533 -32q17 0 23 9.5t6 30.5v464h-62v-464q0 -40 33 -40zM721 -30q18 0 24 9.5t6 30.5v462h-63v-462
q0 -40 33 -40z" />
    <glyph glyph-name="uniE615" unicode="&#xe615;" 
d="M509 728q-89 0 -170.5 -34.5t-140 -93.5t-93.5 -140t-35 -170.5t35 -170.5t93.5 -140t140 -93.5t170.5 -34.5t170.5 34.5t140 93.5t93.5 140t35 170.5t-35 170.5t-93.5 140t-140 93.5t-170.5 34.5zM757 232h-496v115h496v-115z" />
    <glyph glyph-name="uniE616" unicode="&#xe616;" 
d="M951 -19h-878l439 614z" />
    <glyph glyph-name="uniE617" unicode="&#xe617;" 
d="M512 -19l-439 614h878z" />
    <glyph glyph-name="uniE618" unicode="&#xe618;" 
d="M819 727v-878l-614 439z" />
    <glyph glyph-name="uniE619" unicode="&#xe619;" 
d="M205 -151v878l614 -439z" />
    <glyph glyph-name="uniE61A" unicode="&#xe61a;" 
d="M960 -32q0 -53 -37.5 -90.5t-90.5 -37.5h-640q-53 0 -90.5 37.5t-37.5 90.5v640q0 53 37.5 90.5t90.5 37.5h640q53 0 90.5 -37.5t37.5 -90.5v-640zM442 -32q96 186 204 346q37 54 83.5 111.5t74.5 87.5l28 31l-19 64q-14 -10 -37 -28t-82.5 -70t-105 -100.5t-90 -107.5
t-66.5 -94l-22 -35l-154 147l-64 -70z" />
    <glyph glyph-name="uniE61B" unicode="&#xe61b;" 
d="M832 640q14 0 23 -9t9 -23v-640q0 -14 -9 -23t-23 -9h-640q-14 0 -23 9t-9 23v640q0 14 9 23t23 9h640zM832 736h-640q-53 0 -90.5 -37.5t-37.5 -90.5v-640q0 -53 37.5 -90.5t90.5 -37.5h640q53 0 90.5 37.5t37.5 90.5v640q0 53 -37.5 90.5t-90.5 37.5z" />
    <glyph glyph-name="uniE61C" unicode="&#xe61c;" 
d="M889 347q-33 92 -109.5 158t-176.5 88q26 38 67 60t89 22q78 0 134 -56t56 -134q0 -81 -60 -138zM524 668v-120q137 -5 232 -104t95 -237q0 -113 -68 -204l79 -138l-66 -37l-67 117q-95 -80 -219 -80t-218 79l-70 -120l-66 38l81 140q-69 91 -69 205q0 137 94 235.5
t230 105.5v120q-14 5 -23 17t-9 27q0 20 14 34t34 14t34 -14t14 -34q0 -15 -9 -27t-23 -17zM244 207q0 -110 78 -188t188 -78t187.5 78t77.5 188t-77.5 188t-187.5 78t-188 -78t-78 -188zM589 150h-95q-13 0 -22.5 9t-9.5 23v127q0 13 9.5 22t22.5 9t22.5 -9t9.5 -22v-96h63
q14 0 23 -9t9 -22.5t-9.5 -22.5t-22.5 -9v0zM135 347q-60 57 -60 138q0 78 56 134t134 56q48 0 89 -22t67 -60q-100 -22 -176.5 -88t-109.5 -158z" />
    <glyph glyph-name="uniE61D" unicode="&#xe61d;" 
d="M169 -59h679q23 0 37 -15.5t14 -35.5q0 -23 -15.5 -37t-35.5 -14h-679q-23 0 -37 15.5t-14 35.5t14 35.5t37 15.5zM848 57h-224v-129h-224v129h-225q-48 0 -81.5 33.5t-33.5 81.5v448q0 48 33.5 82t81.5 34h673q48 0 81.5 -34t33.5 -82v-448q-5 -48 -38.5 -81.5
t-76.5 -33.5zM848 563q0 24 -17 40.5t-41 16.5h-563q-24 0 -41 -16.5t-17 -40.5v-340q0 -24 17 -40.5t41 -16.5h563q24 0 41 16.5t17 40.5v340z" />
    <glyph glyph-name="uniE61E" unicode="&#xe61e;" 
d="M688 493q0 11 -7.5 19.5t-19.5 10.5q-20 9 -59 14t-68 5h-41q-38 0 -86 -9t-59 -26q-7 -8 -7 -18l-39 -304q0 -13 10 -22t24 -9t24 9t10 22l26 198v-139q0 -16 6 -27q-1 -5 -1 -10v-322q0 -18 14 -30.5t33.5 -12.5t33.5 12.5t14 30.5v306h35v-306q0 -18 14 -30.5
t33.5 -12.5t33.5 12.5t14 30.5v322q0 5 -1 10q6 11 6 27v149l23 -204q0 -13 10 -22t24 -9.5t24 8.5t10 22zM512.5 550q41.5 0 71 27t29.5 65t-29.5 65t-71 27t-71 -27t-29.5 -65t29.5 -65t71 -27z" />
    <glyph glyph-name="uniE61F" unicode="&#xe61f;" 
d="M827.5 604.5q65.5 -65.5 97.5 -147.5t32 -168t-32 -168t-97.5 -147.5t-147.5 -98t-168 -32.5t-168.5 32.5t-148 98t-98 147.5t-32.5 168t32.5 168t98 147.5t148 97.5t168.5 32t168 -32t147.5 -97.5zM720.5 84.5q21.5 21.5 19 49t-23.5 49.5l-108 107l108 108
q21 21 23.5 48.5t-19 49t-51.5 21.5t-52 -21l-107 -107l-104 105q-22 20 -49.5 22.5t-49.5 -17.5q-21 -22 -21 -52.5t21 -52.5l105 -104l-105 -104q-21 -22 -21 -52t21.5 -51.5t49 -19t49.5 23.5l104 105l107 -108q22 -21 52 -21t51.5 21.5z" />
    <glyph glyph-name="uniE620" unicode="&#xe620;" 
d="M514 741q93 0 174.5 -35.5t142.5 -97t96.5 -143.5t35.5 -175t-35.5 -175.5t-96.5 -144t-142.5 -97t-174.5 -35.5t-175 35.5t-143 97t-96 144t-35 175.5t35 175t96 143.5t143 97t175 35.5zM796 376q18 18 19 45.5t-17.5 46t-45 18t-44.5 -19.5l-289 -289l-100 99
q-18 18 -44.5 18.5t-45 -18t-19 -43.5t17.5 -43l143 -144q18 -18 48 -17.5t48 18.5l-4 -4z" />
    <glyph glyph-name="uniE621" unicode="&#xe621;" 
d="M734 243q51 82 51 187q0 129 -79 218.5t-191 89.5q-73 0 -135 -42t-98.5 -113t-36.5 -153q0 -105 51 -187q-108 -49 -169.5 -133t-61.5 -189v-25q0 -24 17 -41t41 -17h778q24 0 41 17t17 41v25q5 103 -57.5 187.5t-167.5 134.5zM515 655q73 0 126.5 -67t53.5 -158.5
t-53.5 -158.5t-126.5 -67t-126.5 67t-53.5 158.5t53.5 158.5t126.5 67zM155 -79q0 81 56.5 149t149.5 102q67 -58 154 -58t154 58q93 -34 149.5 -102t56.5 -149h-720z" />
    <glyph glyph-name="uniE622" unicode="&#xe622;" 
d="M849 720h-112v17h-113v-17h-224v17h-113v-17h-112q-46 0 -79 -32.5t-33 -78.5v-733q0 -16 11 -26.5t26 -10.5h824q15 0 26 10.5t11 26.5v733q0 46 -33 78.5t-79 32.5zM905 -107h-786v514h786v-514zM905 462v-6h-786v169h168v-112h113v112h224v-90v-22h113v56v56h168v-163
zM849 232v56h-674v-112h674v56zM849 7v56h-674v-112h674v56z" />
    <glyph glyph-name="uniE623" unicode="&#xe623;" 
d="M512 -224q-139 0 -257 68.5t-186.5 186.5t-68.5 257t68.5 257t186.5 186.5t257 68.5t257 -68.5t186.5 -186.5t68.5 -257t-68.5 -257t-186.5 -186.5t-257 -68.5zM768 352h-192v192h-128v-192h-192v-128h192v-192h128v192h192v128z" />
    <glyph glyph-name="uniE624" unicode="&#xe624;" 
d="M62 738v-900h900v900h-900zM906 -106h-788v788h788v-788zM681 232h56v-56h-56v56zM568 344h56v-56h-56v56zM737 176h56v-57h-56v57zM512 400h56v-56h-56v56zM624 288h57v-56h-57v56zM287 176h56v-57h-56v57zM343 232h57v-56h-57v56zM456 344h56v-56h-56v56zM400 288h56
v-56h-56v56z" />
    <glyph glyph-name="uniE625" unicode="&#xe625;" 
d="M1024 -224v1024h-1024v-1024h1024zM64 736h896v-896h-896v896zM256 416h64v-64h-64v64zM384 288h64v-64h-64v64zM192 480h64v-64h-64v64zM448 224h64v-64h-64v64zM320 352h64v-64h-64v64zM704 480h64v-64h-64v64zM640 416h64v-64h-64v64zM512 288h64v-64h-64v64zM576 352
h64v-64h-64v64z" />
    <glyph glyph-name="uniE626" unicode="&#xe626;" horiz-adv-x="1025" 
d="M1024 114v-18q0 -15 -10 -25t-24 -10h-229q3 -19 3 -36v-17q0 -15 -10 -25.5t-25 -10.5h-451q-15 0 -25 10.5t-10 25.5v17q0 17 3 36h-211q-15 0 -25 10t-10 25v18q0 64 37 118t99 84q-32 52 -32 117q0 81 46 138t110 57q51 0 91 -36t57 -94q42 41 96 41q63 0 109 -56
q14 63 55.5 104t95.5 41q65 0 110.5 -57t45.5 -138q0 -65 -31 -117q61 -30 98 -84t37 -118zM260.5 575q-42.5 0 -73.5 -42t-31 -100t31 -100t73 -42q27 0 50 18t38 48q-1 -10 -1 -13q0 47 18 89q-1 58 -31.5 100t-73 42zM360 269q-1 0 -4.5 2t-5.5 3q-40 -36 -89.5 -36
t-89.5 36q-54 -22 -86.5 -65t-32.5 -95h211q36 75 116 113q-11 18 -19 42zM295 25h417q0 52 -32.5 95t-86.5 65q-40 -36 -89.5 -36t-89.5 36q-54 -22 -86.5 -65t-32.5 -95zM503.5 486q-42.5 0 -73.5 -42t-31 -99.5t31 -99.5t73.5 -42t73.5 42t31 99.5t-31 99.5t-73.5 42z
M764 575q-42 0 -73 -42t-31 -100t31 -100t73 -42t73 42t31 100t-31 100t-73 42zM647 422v-1v1zM652 405v-1l1 -1l-1 1v1zM656 387l1 -3q-1 0 -1 3zM658 369q1 -1 1 -3v-2v2q0 2 -1 3zM854 274q-41 -36 -90 -36t-90 36q-14 -6 -31 -16q4 10 7 20q-8 -28 -22 -51
q80 -38 116 -113h228q0 52 -32.5 95t-85.5 65zM660 344q0 -12 -2 -28q2 16 2 28zM656 306q-1 -7 -3 -16q2 8 3 16z" />
    <glyph glyph-name="uniE627" unicode="&#xe627;" 
d="M626 586q31 0 53 22t22 53t-22 53t-53 22t-53 -22t-22 -53t22 -53t53 -22zM183 -38l218 -8h3q3 -1 9 0.5t11.5 3.5t10 8t6.5 15l22 266l174 -363q0 -2 1.5 -4.5t7.5 -10t12 -13.5t16.5 -10.5t21.5 -4.5q2 0 4 1t7.5 5t9.5 10t6.5 17.5t1.5 25.5l-118 361l22 171l70 -98
q6 -6 19 -9q11 -2 2 -3l132 3l5 5q3 3 9 11.5t7.5 17t-4 19t-20.5 19.5l-101 1l-119 153q-7 11 -24 11l-251 1q-27 -1 -40 -23l-86 -151q-5 -24 2 -28l19 -13q3 -2 7 -3t15 2.5t22 14.5l72 129l104 -2l-76 -169q-2 -2 -4 -7t-5.5 -17.5t-2.5 -23.5l-16 -234l-175 6h-4
q-2 0 -8 -2t-11.5 -5t-11 -11t-8.5 -18q1 -2 -0.5 -8.5t6.5 -18t24 -18.5q5 -1 8 -3z" />
    <glyph glyph-name="uniE628" unicode="&#xe628;" 
d="M243 735v-402v-89v-178h223v89h-133v45v44h133v-89h90v178h-223v45v268h535v-491h-402v-89v-134h-312v312h89v89h-178v-490h491v223v0h401v669h-714z" />
    <glyph glyph-name="uniE629" unicode="&#xe629;" 
d="M902 -160h-783q-24 0 -40 16.5t-16 39.5v783q0 24 16 40t40 16h783q23 0 39.5 -16t16.5 -40v-783q0 -23 -16.5 -39.5t-39.5 -16.5zM874 651h-727v-728h727v728zM341 652h57v-224h223v224h57v-224h195v-57h-195v-167h195v-57h-195v-224h-57v224h-223v-224h-57v224h-194v57
h194v167h-194v57h194v224zM398 204h223v167h-223v-167z" />
    <glyph glyph-name="uniE62A" unicode="&#xe62a;" 
d="M852 31q-12 -12 -29.5 -12t-29.5 12t-12.5 29.5t12.5 30.5q81 82 81 197t-81 197q-13 12 -12.5 29.5t12.5 30t29.5 12.5t29.5 -13q52 -51 79 -117.5t27 -139t-27 -138.5t-79 -118zM720 138q-12 -10 -27 -10q-20 0 -32 15q-11 13 -9.5 30.5t14.5 28.5q40 34 40 86t-40 86
q-13 11 -14.5 28.5t9.5 30.5q12 15 32 15q15 0 27 -10q33 -28 51.5 -67.5t18.5 -83t-18.5 -82.5t-51.5 -67zM510 -160h-56l-196 196h-140q-23 0 -39.5 16.5t-16.5 39.5v392q0 23 16.5 39.5t39.5 16.5h140l196 196h56q23 0 39.5 -16.5t16.5 -39.5v-784q0 -24 -16.5 -40
t-39.5 -16zM482 645l-189 -189h-147v-336h147l189 -190v715z" />
    <glyph glyph-name="uniE62B" unicode="&#xe62b;" 
d="M763 316h-28v223q0 81 -65.5 138.5t-157.5 57.5t-157.5 -57.5t-65.5 -138.5v-223h-28q-35 0 -59.5 -24.5t-24.5 -59.5v-307q0 -35 24.5 -59.5t59.5 -24.5h502q35 0 59.5 24.5t24.5 59.5v307q0 35 -24.5 59.5t-59.5 24.5zM568 24v-43q0 -23 -16.5 -39.5t-39.5 -16.5
t-39.5 16.5t-16.5 39.5v43q-25 15 -40.5 40.5t-15.5 56.5q0 46 33 78.5t79 32.5t79 -32.5t33 -78.5q0 -31 -15.5 -56.5t-40.5 -40.5zM624 344q0 -14 -7 -28h-210q-7 14 -7 28v195q0 35 33 59.5t79 24.5t79 -24.5t33 -59.5v-195z" />
    <glyph glyph-name="uniE62C" unicode="&#xe62c;" 
d="M958 564l-27 29l-545 -558l-301 315l-22 -22l329 -344l21 22z" />
    <glyph glyph-name="uniE62D" unicode="&#xe62d;" 
d="M960 544q0 -26 -19 -45t-45 -19h-768q-26 0 -45 19t-19 45t19 45t45 19h768q26 0 45 -19t19 -45zM704 288q0 -26 -19 -45t-45 -19h-512q-26 0 -45 19t-19 45t19 45t45 19h512q26 0 45 -19t19 -45zM512 32q0 -26 -19 -45t-45 -19h-320q-26 0 -45 19t-19 45t19 45t45 19
h320q26 0 45 -19t19 -45z" />
    <glyph glyph-name="uniE62E" unicode="&#xe62e;" 
d="M522 754q-96 0 -184 -37.5t-151 -101t-100.5 -151t-37.5 -184t37.5 -184t100.5 -151t151 -101t184 -37.5t184 37.5t151 101t100.5 151t37.5 184t-37.5 184t-100.5 151t-151 101t-184 37.5zM744.5 57.5q-5.5 -5.5 -13.5 -5.5t-13 5l-196 197l-196 -196q-5 -6 -13 -6
t-13 5.5t-5 13.5t5 13l196 197l-197 197q-5 5 -5 13t5.5 13t13 5t13.5 -5l196 -197l196 197q5 5 12.5 5t13 -5.5t5.5 -13t-5 -13.5l-196 -196l196 -197q6 -6 6 -13.5t-5.5 -13z" />
    <glyph glyph-name="uniE62F" unicode="&#xe62f;" 
d="M516 772q-99 0 -189 -38.5t-155 -103.5t-104 -155t-39 -189t39 -189t104 -155t155 -103.5t189 -38.5t189 38.5t155 103.5t103.5 155t38.5 189t-38.5 189t-103.5 155t-155 103.5t-189 38.5zM810 459l-380 -373q-5 -6 -13 -6q-8 1 -14 6l-182 187q-5 6 -5 13.5t5.5 13
t13.5 5.5t14 -5l168 -174l366 360q6 6 14 5.5t13.5 -6t5 -13.5t-5.5 -13z" />
    <glyph glyph-name="uniE630" unicode="&#xe630;" 
d="M938 -39l-214 216q-2 2 -8 7q57 89 57 194q0 98 -47.5 180t-129 130t-178 48t-178 -48t-129 -130t-47.5 -179.5t47.5 -179.5t129 -130t178.5 -48q104 0 193 58q4 -6 6 -8l214 -216q22 -22 53 -22t53 22t22 53t-22 53zM418.5 134q-100.5 0 -171.5 71.5t-71 173t71 173
t171.5 71.5t171.5 -71.5t71 -173t-71 -173t-171.5 -71.5z" />
    <glyph glyph-name="uniE631" unicode="&#xe631;" 
d="M509.5 86q-41.5 0 -76.5 72q-25 53 -48 144q-19 74 -32 152.5t-13 114.5q0 70 50 119.5t120 49.5t119.5 -49.5t49.5 -119.5q0 -36 -12.5 -114.5t-31.5 -152.5q-24 -91 -49 -144q-35 -72 -76.5 -72zM510 697q-53 0 -91 -37.5t-38 -90.5q0 -31 12 -106.5t31 -150.5
q22 -87 46 -136q10 -21 20 -33.5t13.5 -14t6 -1.5t6 1.5t13.5 14t20 33.5q24 49 46 136q19 75 31 150.5t12 106.5q0 53 -37.5 90.5t-90.5 37.5zM509.5 -136q-35.5 0 -61 25.5t-25.5 61t25.5 60.5t61 25t61 -25t25.5 -60.5t-25.5 -61t-61 -25.5zM509.5 -4q-18.5 0 -32 -13.5
t-13.5 -32.5t13.5 -32t32 -13t32 13t13.5 32t-13.5 32.5t-32 13.5z" />
    <glyph glyph-name="uniE632" unicode="&#xe632;" 
d="M512 781q-100 0 -191.5 -39t-157.5 -105t-105 -157.5t-39 -191.5t39 -191.5t105 -157.5t157.5 -105t191.5 -39t191.5 39t157.5 105t105 157.5t39 191.5t-39 191.5t-105 157.5t-157.5 105t-191.5 39zM718 339v-71h-162v-98h162v-71h-162v-141h-88v141h-167v71h167v98h-167
v71h141l-172 279h101l120 -209q10 -20 23 -53h1q9 26 24 56l120 206h95l-174 -279h138z" />
    <glyph glyph-name="uniE633" unicode="&#xe633;" 
d="M512 753l164 -292l303 -56l-214 -256l35 -312l-291 143l-285 -143l35 312l-214 256l287 56z" />
    <glyph glyph-name="uniE634" unicode="&#xe634;" horiz-adv-x="1085" 
d="M447 -63q-77 0 -146.5 29t-124 83t-83.5 124t-29 146.5t29 146.5t83.5 124.5t124 83.5t146.5 29t146.5 -29t124 -83.5t83.5 -124.5t29 -146.5t-29 -146.5t-83.5 -124t-124 -83t-146.5 -29zM447 657q-140 0 -239 -99q-99 -98 -99 -238t99 -239t239 -99t239 99t99 239
t-99 238q-99 99 -239 99zM642.5 345q-7.5 0 -12.5 5l-126 126q-5 5 -5 12.5t5 12.5t12.5 5t12.5 -5l126 -126q5 -5 5 -12.5t-5 -12.5t-12.5 -5zM642 345h-390q-8 0 -13 5t-5 12.5t5 12.5t13 5h390q8 0 13 -5t5 -12.5t-5 -12.5t-13 -5zM381.5 133q-7.5 0 -12.5 5l-126 126
q-5 6 -5 13.5t5 12.5q13 12 26 0l125 -126q6 -5 6 -12.5t-5.5 -13t-13 -5.5zM638 259h-382q-7 0 -12.5 5.5t-5.5 12.5t5.5 12.5t12.5 5.5h382q8 0 13 -5.5t5 -12.5t-5 -12.5t-13 -5.5z" />
    <glyph glyph-name="uniE635" unicode="&#xe635;" 
d="M958 71h-28q-5 57 -43 96t-90.5 39t-90.5 -39t-43 -96h-326q2 12 2 14q0 50 -35.5 85.5t-86 35.5t-86 -35.5t-35.5 -85.5q0 -2 2 -14h-29q-22 0 -37.5 16t-15.5 38v458q0 22 15.5 38t37.5 16h804l139 -228v-284q0 -22 -16 -38t-38 -16zM339 529q0 11 -8 19t-19 8h-189
q-11 0 -19 -8t-8 -19v-162q0 -11 8 -19t19 -8h189q11 0 19 8t8 19v162zM635 529q0 11 -8 19t-19 8h-188q-12 0 -19.5 -8t-7.5 -19v-162q0 -11 7.5 -19t19.5 -8h188q11 0 19 8t8 19v162zM904 448q-3 6 -6 12.5t-4 8.5l-44 87h-27h-80h-27q-11 0 -19 -8t-8 -19v-162
q0 -11 8 -19t19 -8h54h53h54q12 0 19.5 8t7.5 19v81zM217.5 152q39.5 0 67 -27.5t27.5 -66.5t-27.5 -67t-67 -28t-67 28t-27.5 67t27.5 66.5t67 27.5zM810 152q39 0 66.5 -27.5t27.5 -66.5t-27.5 -67t-66.5 -28t-66.5 28t-27.5 67t27.5 66.5t66.5 27.5z" />
    <glyph glyph-name="uniE636" unicode="&#xe636;" horiz-adv-x="1124" 
d="M442 361h-90v-115h90v115zM572 209h-90v-115h90v115zM442 209h-90v-115h90v115zM572 361h-90v-115h90v115zM677 -15h-430q-8 0 -13 5.5t-5 12.5v245h-105q-13 0 -17 11.5t4 19.5l339 316q12 11 24 0l339 -316q9 -8 4.5 -19.5t-17.5 -11.5h-104v-245q-1 -7 -6 -12.5
t-13 -5.5zM265 21h394v245q0 7 5.5 12.5t12.5 5.5h77l-292 273l-293 -273h78q7 0 12.5 -5.5t5.5 -12.5v-245zM842 295q-7 0 -12 5l-366 353l-365 -342q-5 -5 -12.5 -5t-12.5 5.5t-5 13t6 12.5l376 354q13 12 25 0l379 -366q5 -5 5 -12.5t-5 -12.5t-13 -5z" />
    <glyph glyph-name="uniE637" unicode="&#xe637;" horiz-adv-x="1089" 
d="M680 -35h-460q-8 0 -13.5 5.5t-5.5 13.5v341h-112q-13 0 -18 12t5 21l361 337q13 12 26 0l361 -337q10 -9 5 -21t-18 -12h-112v-341q0 -8 -5.5 -13.5t-13.5 -5.5zM239 3h422v341q0 8 5.5 13.5t13.5 5.5h82l-312 291l-312 -291h82q8 0 14 -5.5t6 -13.5zM535 248
q9 -14 9 -35q0 -30 -18 -51q-18 -20 -53 -24v-34h-29v34q-57 6 -70 67l45 11q6 -38 41 -38q17 0 24 8q8 8 8 20t-8 18q-8 7 -34 16q-24 8 -38 16q-13 9 -22 23q-8 15 -8 34q0 26 15 46q15 21 47 25v27h29v-27q49 -6 63 -55l-40 -17q-11 34 -36 34q-13 0 -20 -7t-7 -18t7 -17
q8 -7 31 -15q26 -9 40.5 -17.5t23.5 -23.5z" />
    <glyph glyph-name="uniE638" unicode="&#xe638;" horiz-adv-x="1038" 
d="M558 443q0 8 -5.5 13.5t-13.5 5.5h-210q-8 0 -13.5 -5.5t-5.5 -13.5t5.5 -13.5t13.5 -5.5h210q8 0 13.5 5.5t5.5 13.5zM448 346q0 8 -5.5 13.5t-13.5 5.5h-100q-8 0 -13.5 -5.5t-5.5 -13.5t5.5 -13.5t13.5 -5.5h100q8 0 13.5 5.5t5.5 13.5zM556 522q8 0 13.5 5.5
t5.5 13.5t-5.5 13.5t-13.5 5.5h-233q-8 0 -13.5 -5.5t-5.5 -13.5t5.5 -13.5t13.5 -5.5h233zM412 269h-33q-8 0 -13.5 -5.5t-5.5 -13.5t5.5 -13.5t13.5 -5.5h33q8 0 13.5 5.5t5.5 13t-5.5 13.5t-13.5 6zM535 199l106 24l249 255l-87 80l-249 -256zM669 188q-9 0 -15.5 -6.5
t-6.5 -15.5v-24q0 -20 -9 -34t-20 -14h-350q-11 0 -20 14t-9 34v485q0 20 9 34t20 14h350q11 0 20 -14t9 -34v-102q0 -9 6.5 -15.5t15.5 -6.5t15 6.5t6 15.5v102q0 38 -20.5 64.5t-51.5 26.5h-350q-31 0 -51.5 -26.5t-20.5 -64.5v-485q0 -38 20.5 -64.5t51.5 -26.5h350
q31 0 51.5 26.5t20.5 64.5v24q0 9 -6 15.5t-15 6.5z" />
    <glyph glyph-name="uniE639" unicode="&#xe639;" horiz-adv-x="1038" 
d="M629 385q-32 0 -55 22.5t-23 55t23 55.5t55 23t55 -23t23 -55.5t-23 -55t-55 -22.5zM628.5 502q-16.5 0 -28 -11.5t-11.5 -28t11.5 -28t28 -11.5t28 11.5t11.5 28t-11.5 28t-28 11.5zM555 71q-10 0 -16 7l-148 151l-150 147q-7 6 -7 15.5t7 15.5l294 295q7 7 18 6
l269 -30q17 -2 19 -19l30 -269q1 -10 -6 -18l-295 -294q-6 -7 -15 -7zM288 392l135 -132l132 -135l271 271l-27 240l-240 27zM472 8q-31 0 -55 24l-226 225q-23 23 -21 53.5t28 56.5l42 42q11 11 24 5q5 -2 9 -7q12 -12 149 -149.5t148 -147.5q8 -4 10 -14q1 -8 -8 -18
l-45 -46q-25 -24 -55 -24zM256 363l-27 -28q-27 -26 -7 -47l226 -225q24 -24 47 0l30 30q-199 192 -269 270z" />
    <glyph glyph-name="uniE63A" unicode="&#xe63a;" 
d="M698 494l8 24q10 27 -3.5 53t-40.5 35l-280 93q-28 9 -54 -4t-35 -40q-1 -4 -1 -9l-3 1q-28 6 -53 -9t-32 -43l-26 -108q-24 -12 -38.5 -35t-14.5 -50v-369q0 -40 28 -68t68 -28h450q40 0 68 28t28 68v369q0 32 -19.5 57.5t-49.5 34.5zM336 640q3 10 12.5 15t19.5 2
l280 -93q9 -4 14 -13t2 -19l-12 -34h-24q4 25 -9 47q-15 25 -43 32l-242 59zM248 584q3 11 12 16t19 3l286 -70q10 -3 16 -12q5 -8 3 -19q-1 -3 -1 -5h-356zM722 32q0 -21 -15 -35.5t-36 -14.5h-450q-21 0 -36 14.5t-15 35.5v370q0 21 15 36t36 15h450q21 0 36 -15t15 -36
v-370zM505 332l-48 -92q-8 -16 -11 -23q-4 11 -10 21l-50 94h-42l69 -127h-56v-34h71v-19h-71v-31h71v-58h37v58h71v31h-71v19h71v34h-56l69 127h-44z" />
    <glyph glyph-name="uniE63B" unicode="&#xe63b;" 
d="M534 168h92v-22h-92v22zM959 300q0 -91 -35 -174t-95 -142.5t-143 -95t-174 -35.5t-173.5 35.5t-142.5 95t-95.5 142.5t-35.5 174t35.5 173.5t95.5 142.5t142.5 95.5t173.5 35.5t174 -35.5t143 -95.5t95 -142.5t35 -173.5zM438 480q0 -7 2 -13q2 -7 8 -11q6 -5 18 -5h212
q11 0 17 5q5 3 8 10q2 6 2 14t-2 14t-8 11q-6 4 -17 4h-212q-11 0 -18 -4q-5 -4 -8 -11q-2 -6 -2 -14zM426 311q-2 4 -4 9q-3 9 -3 21q0 11 2 20q-11 2 -18 7q-8 7 -13 18q-3 10 -3 23q0 12 3 22q4 11 13 17q9 7 26 7q0 2 -1 5q-3 9 -3 21q0 11 3 20q2 7 6 12l-1 1
q-11 8 -22 12q-14 3 -27 2q-11 -2 -21 -9q-11 -8 -16 -27q-8 -29 -24 -68v-1q-16 -34 -36 -78q-9 -17 -7 -30q1 -11 8 -19q8 -11 18 -17l16 -6v-153q0 -18 8 -30q8 -10 19 -14t24 -4q14 0 25 4q12 4 19 14q2 3 5 8q-1 2 -1 4q-4 12 -3 26v57q-1 17 4 29q1 4 4 8v15
q-5 5 -8 13q-3 9 -3 21q0 11 3 20q2 8 8 13v7zM430 257q2 -7 8 -11q3 -2 9 -5q2 2 6 2q12 4 26 3h197q13 1 26 -3q2 1 5 3q5 3 8 10q2 6 2 14t-2 14t-8 11q-6 4 -17 4h-234q-11 0 -18 -4q-5 -4 -8 -11q-2 -6 -2 -14q0 -7 2 -13zM434 327q2 -7 8 -11q2 -2 4 -3q5 0 10 1h234
q4 0 8 -1q2 1 5 3q5 3 8 10q2 6 2 14t-2 14t-8 11q-6 4 -17 4h-226q-11 0 -18 -4q-5 -4 -8 -11q-2 -6 -2 -14q0 -7 2 -13zM723 185q0 12 -3 22q-3 6 -9 13q-6 6 -15 9q-10 2 -20 2h-197q-9 1 -20 -2q-9 -3 -15 -10q-5 -6 -8 -12q-4 -9 -3 -22v-57q-1 -9 2 -20q2 -8 9 -15
q7 -5 13 -9q9 -3 22 -3h197q12 0 22 3q6 2 13 8q6 7 10 16q2 10 2 20v57zM745 408q-1 9 -3 16q-3 7 -9 12t-19 5h-13q-10 -5 -23 -5h-212q-14 0 -24 5h-10q-13 0 -20 -5q-6 -5 -9 -12q-2 -6 -3 -15q1 -9 3 -16q3 -8 9 -13t18 -5q2 1 3 2q10 7 27 7h226q16 0 26 -7v-1
q1 -1 2 -1q12 0 19 5q6 5 9 12q2 7 3 16z" />
    <glyph glyph-name="uniE63C" unicode="&#xe63c;" horiz-adv-x="1105" 
d="M359 -49q-3 0 -6 1q-96 26 -167 95q-7 8 -6.5 18.5t8.5 17.5q23 17 28.5 45t-9 52.5t-41.5 33.5t-53 -1q-10 -4 -19.5 1t-11.5 15q-12 47 -12 95.5t12 96.5q2 10 11.5 15t19.5 1q26 -11 53 -1.5t41 33.5t8.5 52t-27.5 46q-8 6 -9 17t7 18q71 70 167 96q10 3 19 -3t10 -16
q4 -28 25.5 -47t49.5 -19q18 0 42 20.5t33 37.5q-1 5 1 11q3 10 11.5 14.5t17.5 1.5v0q98 -29 166 -96q8 -7 7.5 -18t-9.5 -17q-22 -18 -27.5 -45.5t8.5 -52t41 -34t53 1.5q10 4 19.5 -1t12.5 -15q12 -47 12 -96q0 -48 -12 -96q-3 -10 -12.5 -15t-19.5 -1q-26 11 -53 1.5
t-41 -34t-8.5 -52t27.5 -45.5q9 -6 9 -17q1 -11 -7 -18q-71 -70 -166 -96q-11 -3 -19.5 3t-10.5 16q-4 28 -25.5 47t-49.5 19t-49.5 -19t-25.5 -47q-1 -10 -10 -16q-6 -4 -13 -4zM237 65q48 -40 105 -61q14 36 45.5 58t70 22t70 -22t44.5 -58q58 21 105 61q-23 29 -26.5 67
t15.5 72q19 33 54 49.5t72 10.5q6 30 6 61q0 30 -6 60q-37 -6 -71.5 10.5t-54.5 49.5q-19 34 -15.5 72t26.5 68q-45 38 -105 60q-18 -29 -50.5 -54t-64.5 -25q-38 0 -69.5 22t-45.5 57q-58 -20 -105 -60q24 -30 27.5 -68t-16.5 -72q-19 -33 -53.5 -49t-72.5 -11
q-5 -30 -5 -60.5t5 -60.5q38 6 72.5 -10.5t54.5 -49.5q19 -34 15.5 -72t-27.5 -67zM457 202q-51 0 -87 36t-36 87t36 87t87 36t87 -36t36 -87t-36 -87t-87 -36zM457 400q-31 0 -53 -22t-22 -53.5t22 -53.5t53 -22t53.5 22t22.5 53.5t-22.5 53.5t-53.5 22z" />
    <glyph glyph-name="uniE63D" unicode="&#xe63d;" 
d="M617 135h-266q-9 0 -15 6.5t-6 15t6 15t15 6.5h266q9 0 15.5 -6.5t6.5 -15t-6.5 -15t-15.5 -6.5zM617 243h-266q-9 0 -15 6t-6 15t6 15t15 6h266q9 0 15.5 -6t6.5 -15t-6.5 -15t-15.5 -6zM617 353h-266q-9 0 -15 6.5t-6 15t6 15t15 6.5h266q9 0 15.5 -6.5t6.5 -15
t-6.5 -15t-15.5 -6.5zM617 461h-266q-9 0 -15 6t-6 15t6 15t15 6h266q9 0 15.5 -6t6.5 -15t-6.5 -15t-15.5 -6zM672 -62h-455q-40 0 -68 28t-28 68v573q0 40 28 68t68 28h455q40 0 68 -28t28 -68v-573q0 -40 -28 -68t-68 -28zM217 658q-21 0 -36 -15t-15 -36v-573
q0 -21 15 -36t36 -15h455q21 0 36 15t15 36v573q0 21 -15 36t-36 15h-455zM256 481q-3 -4 -3 -9q0 -9 6 -15t14.5 -6t15 6t6.5 15q0 5 -3 10q3 4 3 9q0 9 -6.5 15t-15 6t-14.5 -6t-6 -15q0 -5 3 -10zM256 370q-3 -5 -3 -10q0 -8 6 -14.5t14.5 -6.5t15 6.5t6.5 14.5
q0 5 -3 10q3 4 3 9q0 9 -6.5 15t-15 6t-14.5 -6t-6 -15q0 -5 3 -9zM256 260q-3 -5 -3 -10q0 -9 6 -15t14.5 -6t15 6t6.5 15q0 5 -3 10q3 4 3 9q0 9 -6.5 15t-15 6t-14.5 -6t-6 -15q0 -5 3 -9zM256 153q-3 -4 -3 -10q0 -8 6 -14t14.5 -6t15 6t6.5 14q0 6 -3 10q3 4 3 10
q0 8 -6.5 14t-15 6t-14.5 -6t-6 -14q0 -6 3 -10z" />
    <glyph glyph-name="uniE63E" unicode="&#xe63e;" horiz-adv-x="1139" 
d="M73 118q-17 -21 -8.5 -31.5t25.5 -12.5q41 -8 72 23l232 297q36 45 55 51t30 -8l268 -340q19 -20 31.5 -23.5t42.5 1.5q17 2 24.5 13.5t-9.5 30.5l-283 357q-30 40 -50 57t-49.5 17t-46.5 -15.5t-51 -58.5z" />
    <glyph glyph-name="uniE63F" unicode="&#xe63f;" horiz-adv-x="1139" 
d="M73 504q-17 21 -8.5 31.5t25.5 12.5q41 8 72 -23l232 -297q36 -45 55 -51t30 8l268 340q19 20 31.5 23.5t42.5 -1.5q17 -2 24.5 -13.5t-9.5 -30.5l-283 -357q-30 -40 -50 -57t-49.5 -17t-46.5 15.5t-51 58.5z" />
    <glyph glyph-name="uniE640" unicode="&#xe640;" 
d="M453 549h266v-130h-266v130zM518.5 793q-100.5 0 -192 -39t-157.5 -105.5t-105 -157.5t-39 -191.5t39 -192t105 -157.5t157.5 -105t192 -39t191.5 39t157 105t105.5 157.5t39.5 192t-39.5 191.5t-105.5 157.5t-157 105.5t-191.5 39zM264 -5q4 40 4 84v223q0 37 2 83
q-26 -47 -73 -98q-15 24 -29 40q90 89 135 207q22 57 28 96l47 -15q-5 -12 -12 -38q-19 -57 -56 -130v-370q0 -50 4 -82h-50zM800 46q-64 39 -110 80q-29 25 -48.5 47.5t-45.5 60.5q4 -36 4 -75v-95q0 -43 4 -69h-50q4 33 4 69v94q0 50 3 76q-25 -39 -47.5 -65.5
t-58.5 -56.5q-46 -39 -96 -67q-13 22 -32 39q75 36 136 91q26 23 40 39t40 53h-120q-40 0 -69 -4v47q30 -4 69 -4h135v74h-77q-44 0 -74 -3q3 38 3 63v90q0 35 -3 62q24 -3 77 -3h205q52 0 77 3q-3 -22 -3 -63v-90q0 -38 3 -62q-33 3 -74 3h-92v-74h142q39 0 68 4v-47
q-35 4 -67 4h-131q31 -41 48 -59t46 -41q57 -47 126 -78q-17 -17 -32 -43z" />
  </font>
</defs>
</svg>
